<mxfile host="app.diagrams.net" modified="2024-06-24T06:28:53.713Z" agent="Mozilla/5.0 (Macintosh; Intel Mac OS X 10_15_7) AppleWebKit/537.36 (KHTML, like Gecko) Chrome/126.0.0.0 Safari/537.36" etag="DnzlOl8eprQ_NfX6y0Xr" version="24.5.5" type="github">
  <diagram name="Страница — 1" id="hGadKuZSUZHHpC3SCfmS">
    <mxGraphModel dx="2562" dy="2333" grid="1" gridSize="10" guides="1" tooltips="1" connect="1" arrows="1" fold="1" page="1" pageScale="1" pageWidth="827" pageHeight="1169" math="0" shadow="0">
      <root>
        <mxCell id="0" />
        <mxCell id="1" parent="0" />
        <mxCell id="7xYiCA0voqyFiPG2Fma_-1" value="API call" style="html=1;dashed=0;whiteSpace=wrap;fillColor=#d5e8d4;strokeColor=#82b366;" parent="1" vertex="1">
          <mxGeometry x="-210" y="200" width="390" height="260" as="geometry" />
        </mxCell>
        <mxCell id="Yh3LUqaeJqm4dU_0AutN-3" style="edgeStyle=orthogonalEdgeStyle;rounded=0;orthogonalLoop=1;jettySize=auto;html=1;curved=1;strokeColor=#FF0000;strokeWidth=2;endSize=15;" edge="1" parent="1">
          <mxGeometry relative="1" as="geometry">
            <mxPoint x="84" y="346" as="sourcePoint" />
            <mxPoint x="-59.9999999999999" y="300.0048484848487" as="targetPoint" />
          </mxGeometry>
        </mxCell>
        <mxCell id="7xYiCA0voqyFiPG2Fma_-3" value="Raspberry Pi" style="shape=mxgraph.cisco.wireless.wlan_controller;sketch=0;html=1;pointerEvents=1;dashed=0;fillColor=#036897;strokeColor=#ffffff;strokeWidth=2;verticalLabelPosition=bottom;verticalAlign=top;align=center;outlineConnect=0;" parent="1" vertex="1">
          <mxGeometry x="70" y="302" width="101" height="56" as="geometry" />
        </mxCell>
        <mxCell id="7xYiCA0voqyFiPG2Fma_-4" value="" style="html=1;dashed=0;whiteSpace=wrap;fillColor=#dae8fc;strokeColor=#6c8ebf;" parent="1" vertex="1">
          <mxGeometry x="440" y="-270" width="440" height="320" as="geometry" />
        </mxCell>
        <mxCell id="7xYiCA0voqyFiPG2Fma_-5" value="Client" style="text;html=1;align=center;verticalAlign=middle;whiteSpace=wrap;rounded=0;" parent="1" vertex="1">
          <mxGeometry x="-150" y="210" width="60" height="30" as="geometry" />
        </mxCell>
        <mxCell id="7xYiCA0voqyFiPG2Fma_-6" value="Cloud ( Scale Soft)" style="text;html=1;align=center;verticalAlign=middle;whiteSpace=wrap;rounded=0;" parent="1" vertex="1">
          <mxGeometry x="450" y="-260" width="150" height="30" as="geometry" />
        </mxCell>
        <mxCell id="7xYiCA0voqyFiPG2Fma_-18" style="edgeStyle=orthogonalEdgeStyle;rounded=0;orthogonalLoop=1;jettySize=auto;html=1;curved=1;strokeColor=#3333FF;strokeWidth=3;endSize=15;" parent="1" source="7xYiCA0voqyFiPG2Fma_-7" target="7xYiCA0voqyFiPG2Fma_-3" edge="1">
          <mxGeometry relative="1" as="geometry">
            <Array as="points">
              <mxPoint x="230" y="10" />
              <mxPoint x="230" y="332" />
            </Array>
          </mxGeometry>
        </mxCell>
        <mxCell id="7xYiCA0voqyFiPG2Fma_-30" value="Inventory Data" style="edgeLabel;html=1;align=center;verticalAlign=middle;resizable=0;points=[];rotation=-30;" parent="7xYiCA0voqyFiPG2Fma_-18" vertex="1" connectable="0">
          <mxGeometry x="-0.4395" y="38" relative="1" as="geometry">
            <mxPoint x="-4" y="12" as="offset" />
          </mxGeometry>
        </mxCell>
        <mxCell id="7xYiCA0voqyFiPG2Fma_-22" style="edgeStyle=orthogonalEdgeStyle;rounded=0;orthogonalLoop=1;jettySize=auto;html=1;strokeColor=#67AB9F;strokeWidth=3;endSize=15;curved=1;" parent="1" source="7xYiCA0voqyFiPG2Fma_-7" target="7xYiCA0voqyFiPG2Fma_-3" edge="1">
          <mxGeometry relative="1" as="geometry">
            <Array as="points">
              <mxPoint x="460" y="-21" />
              <mxPoint x="460" y="70" />
              <mxPoint x="290" y="70" />
              <mxPoint x="290" y="332" />
            </Array>
          </mxGeometry>
        </mxCell>
        <mxCell id="7xYiCA0voqyFiPG2Fma_-25" style="edgeStyle=orthogonalEdgeStyle;rounded=0;orthogonalLoop=1;jettySize=auto;html=1;entryX=0.5;entryY=1;entryDx=0;entryDy=0;strokeWidth=3;endSize=15;strokeColor=#67AB9F;dashed=1;curved=1;" parent="1" source="7xYiCA0voqyFiPG2Fma_-7" target="7xYiCA0voqyFiPG2Fma_-8" edge="1">
          <mxGeometry relative="1" as="geometry" />
        </mxCell>
        <mxCell id="7xYiCA0voqyFiPG2Fma_-7" value="KAFKA" style="sketch=0;points=[[0,0,0],[0.25,0,0],[0.5,0,0],[0.75,0,0],[1,0,0],[0,1,0],[0.25,1,0],[0.5,1,0],[0.75,1,0],[1,1,0],[0,0.25,0],[0,0.5,0],[0,0.75,0],[1,0.25,0],[1,0.5,0],[1,0.75,0]];outlineConnect=0;fontColor=#232F3E;fillColor=#8C4FFF;strokeColor=#ffffff;dashed=0;verticalLabelPosition=bottom;verticalAlign=top;align=center;html=1;fontSize=12;fontStyle=0;aspect=fixed;shape=mxgraph.aws4.resourceIcon;resIcon=mxgraph.aws4.managed_streaming_for_kafka;" parent="1" vertex="1">
          <mxGeometry x="470" y="-60" width="78" height="78" as="geometry" />
        </mxCell>
        <mxCell id="7xYiCA0voqyFiPG2Fma_-19" style="edgeStyle=orthogonalEdgeStyle;rounded=0;orthogonalLoop=1;jettySize=auto;html=1;curved=1;strokeWidth=2;endSize=15;strokeColor=#67AB9F;" parent="1" source="7xYiCA0voqyFiPG2Fma_-8" target="7xYiCA0voqyFiPG2Fma_-7" edge="1">
          <mxGeometry relative="1" as="geometry" />
        </mxCell>
        <mxCell id="7xYiCA0voqyFiPG2Fma_-20" value="Configuration Commands Request" style="edgeLabel;html=1;align=center;verticalAlign=middle;resizable=0;points=[];rotation=-75;" parent="7xYiCA0voqyFiPG2Fma_-19" vertex="1" connectable="0">
          <mxGeometry x="-0.0426" y="5" relative="1" as="geometry">
            <mxPoint x="-306" y="295" as="offset" />
          </mxGeometry>
        </mxCell>
        <mxCell id="7xYiCA0voqyFiPG2Fma_-29" value="Configuration Commands Request" style="edgeLabel;html=1;align=center;verticalAlign=middle;resizable=0;points=[];" parent="7xYiCA0voqyFiPG2Fma_-19" vertex="1" connectable="0">
          <mxGeometry x="-0.1628" y="2" relative="1" as="geometry">
            <mxPoint x="14" y="-12" as="offset" />
          </mxGeometry>
        </mxCell>
        <mxCell id="7xYiCA0voqyFiPG2Fma_-35" style="edgeStyle=orthogonalEdgeStyle;rounded=0;orthogonalLoop=1;jettySize=auto;html=1;exitX=0;exitY=0;exitDx=0;exitDy=0;curved=1;strokeWidth=3;endSize=15;strokeColor=#99004D;" parent="1" source="7xYiCA0voqyFiPG2Fma_-8" target="7xYiCA0voqyFiPG2Fma_-9" edge="1">
          <mxGeometry relative="1" as="geometry" />
        </mxCell>
        <mxCell id="7xYiCA0voqyFiPG2Fma_-36" value="Write user data" style="edgeLabel;html=1;align=center;verticalAlign=middle;resizable=0;points=[];" parent="7xYiCA0voqyFiPG2Fma_-35" vertex="1" connectable="0">
          <mxGeometry x="-0.1145" y="-8" relative="1" as="geometry">
            <mxPoint x="24" y="-11" as="offset" />
          </mxGeometry>
        </mxCell>
        <mxCell id="7xYiCA0voqyFiPG2Fma_-8" value="Backend" style="image;aspect=fixed;perimeter=ellipsePerimeter;html=1;align=center;shadow=0;dashed=0;fontColor=#4277BB;labelBackgroundColor=default;fontSize=12;spacingTop=3;image=img/lib/ibm/infrastructure/mobile_backend.svg;" parent="1" vertex="1">
          <mxGeometry x="780" y="-140" width="60" height="60" as="geometry" />
        </mxCell>
        <mxCell id="7xYiCA0voqyFiPG2Fma_-9" value="Database" style="image;aspect=fixed;perimeter=ellipsePerimeter;html=1;align=center;shadow=0;dashed=0;spacingTop=3;image=img/lib/active_directory/database_server.svg;" parent="1" vertex="1">
          <mxGeometry x="639.5" y="-240" width="41" height="50" as="geometry" />
        </mxCell>
        <mxCell id="Yh3LUqaeJqm4dU_0AutN-4" style="edgeStyle=orthogonalEdgeStyle;rounded=0;orthogonalLoop=1;jettySize=auto;html=1;curved=1;strokeColor=#FF0000;dashed=1;" edge="1" parent="1" source="7xYiCA0voqyFiPG2Fma_-12" target="7xYiCA0voqyFiPG2Fma_-3">
          <mxGeometry relative="1" as="geometry" />
        </mxCell>
        <mxCell id="7xYiCA0voqyFiPG2Fma_-12" value="Impinj R700" style="sketch=0;aspect=fixed;pointerEvents=1;shadow=0;dashed=0;html=1;strokeColor=none;labelPosition=center;verticalLabelPosition=bottom;verticalAlign=top;align=center;fillColor=#00188D;shape=mxgraph.mscae.enterprise.router" parent="1" vertex="1">
          <mxGeometry x="-120" y="257" width="67.95" height="53" as="geometry" />
        </mxCell>
        <mxCell id="7xYiCA0voqyFiPG2Fma_-13" value="Impinj R700" style="sketch=0;aspect=fixed;pointerEvents=1;shadow=0;dashed=0;html=1;strokeColor=none;labelPosition=center;verticalLabelPosition=bottom;verticalAlign=top;align=center;fillColor=#00188D;shape=mxgraph.mscae.enterprise.router" parent="1" vertex="1">
          <mxGeometry x="-120" y="360" width="75.64" height="59" as="geometry" />
        </mxCell>
        <mxCell id="7xYiCA0voqyFiPG2Fma_-16" style="edgeStyle=orthogonalEdgeStyle;rounded=0;orthogonalLoop=1;jettySize=auto;html=1;entryX=0;entryY=0.5;entryDx=0;entryDy=0;entryPerimeter=0;curved=1;strokeWidth=3;endSize=15;strokeColor=#3333FF;" parent="1" source="7xYiCA0voqyFiPG2Fma_-12" target="7xYiCA0voqyFiPG2Fma_-7" edge="1">
          <mxGeometry relative="1" as="geometry" />
        </mxCell>
        <mxCell id="7xYiCA0voqyFiPG2Fma_-21" value="Inventory data" style="edgeLabel;html=1;align=center;verticalAlign=middle;resizable=0;points=[];rotation=-60;" parent="7xYiCA0voqyFiPG2Fma_-16" vertex="1" connectable="0">
          <mxGeometry x="0.1828" y="-20" relative="1" as="geometry">
            <mxPoint x="-18" y="-12" as="offset" />
          </mxGeometry>
        </mxCell>
        <mxCell id="7xYiCA0voqyFiPG2Fma_-17" style="edgeStyle=orthogonalEdgeStyle;rounded=0;orthogonalLoop=1;jettySize=auto;html=1;entryX=0.5;entryY=1;entryDx=0;entryDy=0;entryPerimeter=0;curved=1;strokeWidth=3;endSize=15;strokeColor=#3333FF;" parent="1" source="7xYiCA0voqyFiPG2Fma_-13" target="7xYiCA0voqyFiPG2Fma_-7" edge="1">
          <mxGeometry relative="1" as="geometry">
            <Array as="points">
              <mxPoint x="-82" y="460" />
              <mxPoint x="550" y="460" />
              <mxPoint x="550" y="18" />
            </Array>
          </mxGeometry>
        </mxCell>
        <mxCell id="7xYiCA0voqyFiPG2Fma_-31" value="Inventory Data" style="edgeLabel;html=1;align=center;verticalAlign=middle;resizable=0;points=[];rotation=-70;" parent="7xYiCA0voqyFiPG2Fma_-17" vertex="1" connectable="0">
          <mxGeometry x="0.4417" y="6" relative="1" as="geometry">
            <mxPoint x="6" y="5" as="offset" />
          </mxGeometry>
        </mxCell>
        <mxCell id="7xYiCA0voqyFiPG2Fma_-23" style="edgeStyle=orthogonalEdgeStyle;rounded=0;orthogonalLoop=1;jettySize=auto;html=1;strokeColor=#67AB9F;strokeWidth=3;endSize=15;curved=1;dashed=1;" parent="1" source="7xYiCA0voqyFiPG2Fma_-3" target="7xYiCA0voqyFiPG2Fma_-7" edge="1">
          <mxGeometry relative="1" as="geometry">
            <Array as="points">
              <mxPoint x="480" y="332" />
              <mxPoint x="480" y="170" />
              <mxPoint x="500" y="170" />
            </Array>
          </mxGeometry>
        </mxCell>
        <mxCell id="7xYiCA0voqyFiPG2Fma_-24" value="Configuration Commands Response" style="edgeLabel;html=1;align=center;verticalAlign=middle;resizable=0;points=[];" parent="7xYiCA0voqyFiPG2Fma_-23" vertex="1" connectable="0">
          <mxGeometry x="0.1344" y="3" relative="1" as="geometry">
            <mxPoint x="223" y="-273" as="offset" />
          </mxGeometry>
        </mxCell>
        <mxCell id="7xYiCA0voqyFiPG2Fma_-26" value="Configuration Commands Response" style="edgeLabel;html=1;align=center;verticalAlign=middle;resizable=0;points=[];rotation=0;" parent="1" vertex="1" connectable="0">
          <mxGeometry x="339.9966666666666" y="389.4966666666666" as="geometry">
            <mxPoint x="-9.375644347017863" y="-44.23909236273086" as="offset" />
          </mxGeometry>
        </mxCell>
        <mxCell id="7xYiCA0voqyFiPG2Fma_-33" style="edgeStyle=orthogonalEdgeStyle;rounded=0;orthogonalLoop=1;jettySize=auto;html=1;entryX=0;entryY=0.5;entryDx=0;entryDy=0;curved=1;strokeWidth=2;endSize=14;strokeColor=#99004D;" parent="1" edge="1">
          <mxGeometry relative="1" as="geometry">
            <mxPoint x="120" y="314" as="sourcePoint" />
            <mxPoint x="649" y="-205" as="targetPoint" />
            <Array as="points">
              <mxPoint x="120" y="-205" />
            </Array>
          </mxGeometry>
        </mxCell>
        <mxCell id="7xYiCA0voqyFiPG2Fma_-34" value="Write Detected devices to database" style="edgeLabel;html=1;align=center;verticalAlign=middle;resizable=0;points=[];" parent="7xYiCA0voqyFiPG2Fma_-33" vertex="1" connectable="0">
          <mxGeometry x="-0.3287" y="-93" relative="1" as="geometry">
            <mxPoint y="-1" as="offset" />
          </mxGeometry>
        </mxCell>
        <mxCell id="Yh3LUqaeJqm4dU_0AutN-5" style="edgeStyle=orthogonalEdgeStyle;rounded=0;orthogonalLoop=1;jettySize=auto;html=1;" edge="1" parent="1" source="7xYiCA0voqyFiPG2Fma_-3" target="7xYiCA0voqyFiPG2Fma_-3">
          <mxGeometry relative="1" as="geometry" />
        </mxCell>
      </root>
    </mxGraphModel>
  </diagram>
</mxfile>
